# xmcd CD database file generated by Grip 2.96
# 
# Track frame offsets:
#       150
#       21187
#       38685
#       53075
#       74010
#       107115
#       121682
#       140192
#       158175
#       185317
#       208422
#       237862
#       260815
# 
# Disc length: 3791 seconds
# 
# Revision: 0
# Processed by: cddbd v1.4PL0 Copyright (c) Steve Scherf et al.
# Submitted via: Grip 2.96
# 
DISCID=c20ecd0d
DTITLE=Show of Hands - Show of Hands - CD2
DYEAR=1900
DGENRE=
TTITLE0=Captains
TTITLE1=Don't It Feel Good
TTITLE2=Broomfield Hill
TTITLE3=Hook of Love
TTITLE4=Tall Ships
TTITLE5=Mary from Dungloe
TTITLE6=The Shout
TTITLE7=Breakfast for Altan
TTITLE8=The Blue Cockade
TTITLE9=The Bristol Slaver
TTITLE10=Santiago
TTITLE11=Galway Farmer
TTITLE12=Scattering Tears
EXTD=
EXTT0=
EXTT1=
EXTT2=
EXTT3=
EXTT4=
EXTT5=
EXTT6=
EXTT7=
EXTT8=
EXTT9=
EXTT10=
EXTT11=
EXTT12=
PLAYORDER=
